<svg version="1.1" id="Layer_1" xmlns="http://www.w3.org/2000/svg" xmlns:xlink="http://www.w3.org/1999/xlink" x="0px" y="0px"
	 width="100%" viewBox="0 0 816 960" enable-background="new 0 0 816 960" xml:space="preserve">
<path fill="#000000" opacity="1.000000" stroke="none" 
	d="
M387.468658,961.000000 
	C379.324738,956.281982 370.669403,953.811157 362.416504,950.455566 
	C329.538452,937.087769 296.552765,923.984802 263.639526,910.703003 
	C262.081726,910.074402 260.090973,909.825623 258.867371,907.439209 
	C266.111664,904.533203 273.998993,905.595154 281.866394,902.650696 
	C279.313110,896.596741 276.790070,890.574524 274.235413,884.565674 
	C269.305908,872.970825 264.252777,861.427002 259.468445,849.772705 
	C257.428986,844.804810 254.151077,841.189026 249.885284,838.020447 
	C223.530701,818.444397 197.297028,798.705688 171.001953,779.049377 
	C140.026489,755.894470 109.032234,732.764648 78.040833,709.630981 
	C61.677650,697.416626 45.245071,685.293945 28.976875,672.954407 
	C25.142345,670.045898 21.979507,668.544556 17.602669,672.152954 
	C14.485007,674.723206 10.562675,676.317505 6.479416,678.643616 
	C6.268055,673.695862 7.701972,669.821594 8.987158,665.990051 
	C10.317019,662.025391 10.773602,658.673401 6.454642,656.129456 
	C4.144502,654.768738 4.172982,652.586060 6.782576,651.649841 
	C13.736018,649.155334 15.302102,643.391113 17.028900,637.091309 
	C27.821318,597.718323 38.900875,558.424011 49.884087,519.103271 
	C54.392803,502.961700 58.950466,486.833405 63.347687,470.661499 
	C63.985790,468.314728 65.409798,465.840118 62.654167,463.364807 
	C60.989723,461.869659 62.751396,459.848053 64.069679,458.690674 
	C67.144440,455.991150 67.557343,452.605133 67.715630,448.784271 
	C68.601830,427.391602 69.491699,405.995148 70.792999,384.625122 
	C71.488617,373.201752 72.239830,361.789734 72.763329,350.352203 
	C73.741257,328.986481 75.315666,307.648376 76.581512,286.295227 
	C76.954620,280.001343 76.954102,273.707581 77.464874,267.394867 
	C78.655670,252.677704 78.751755,237.875504 79.721252,223.136017 
	C80.886368,205.422348 81.801979,187.698181 82.817772,169.978195 
	C83.785934,153.088989 84.941170,136.213120 85.756248,119.309906 
	C86.674118,100.274994 88.279526,81.273026 89.606766,62.258186 
	C90.081703,55.453964 85.529602,50.461548 83.182236,44.711311 
	C79.670830,36.109566 75.489059,27.781662 71.601883,19.332930 
	C71.051086,18.135777 70.349991,16.930979 71.511414,15.189290 
	C78.815865,18.595097 83.145180,25.789448 90.184204,30.146772 
	C93.195473,24.423262 90.523216,18.196436 92.179367,12.540916 
	C94.614471,12.622928 94.867729,14.542680 95.503120,15.930130 
	C99.928711,25.593885 104.305931,35.280056 108.639618,44.985405 
	C109.473969,46.853931 110.581001,48.446709 112.100601,49.800293 
	C126.967224,63.042740 141.838272,76.280281 156.679321,89.551369 
	C167.322540,99.068703 177.876877,108.685814 188.552444,118.166542 
	C201.815704,129.945343 215.192703,141.596024 228.464569,153.365189 
	C238.646240,162.394043 248.707870,171.558182 258.883606,180.593781 
	C269.917542,190.391388 281.057983,200.069077 292.084656,209.874741 
	C302.125732,218.803909 312.212799,227.689301 322.013245,236.878067 
	C327.392090,241.921204 332.740448,245.290131 340.771332,244.877640 
	C352.292511,244.285904 363.636780,241.561478 375.303314,242.510864 
	C380.575989,242.939926 385.805084,244.082642 391.177551,243.703018 
	C396.021545,243.360748 396.036957,243.578827 396.861481,238.140671 
	C403.576538,241.503433 410.436981,243.571167 417.476715,237.629944 
	C418.107208,244.272720 421.498016,244.232162 425.456055,243.218018 
	C426.729950,242.891602 428.069000,242.744400 429.386627,242.675827 
	C439.008575,242.174957 448.690704,243.627563 458.277283,241.782303 
	C458.892120,241.663956 459.722321,241.720215 460.214752,242.050003 
	C469.566193,248.313034 480.050323,245.425064 489.995636,245.148926 
	C493.775269,245.043961 497.069977,240.590347 500.223328,237.674423 
	C519.479370,219.868240 538.861694,202.205215 558.620300,184.953491 
	C566.621521,177.967377 574.253601,170.560242 582.157776,163.460693 
	C594.759033,152.142288 607.648132,141.135849 620.025146,129.579346 
	C627.673035,122.438377 635.536194,115.558083 643.301575,108.558105 
	C656.246033,96.889542 668.918640,84.927330 682.136169,73.551559 
	C692.957764,64.237854 703.364563,54.440186 713.874756,44.769524 
	C715.050598,43.687618 715.815002,42.094143 716.576233,40.636620 
	C721.276001,31.638126 725.905090,22.602764 730.600037,13.601750 
	C731.249512,12.356575 731.561279,10.695360 733.796326,10.459455 
	C734.885498,14.846881 733.848450,19.638933 736.104492,23.762558 
	C744.843079,18.770187 750.167847,9.469709 759.349243,4.850927 
	C760.614990,7.008998 759.400696,8.412244 758.622620,9.767749 
	C750.994019,23.059015 744.601379,36.980534 737.813477,50.695820 
	C734.880249,56.622604 736.483643,63.100250 736.733826,69.361160 
	C736.779602,70.507156 737.349609,71.653053 737.291687,72.779129 
	C736.683289,84.606247 738.221497,96.361511 738.465027,108.165108 
	C738.828003,125.757339 739.916016,143.335632 740.549744,160.928299 
	C741.069275,175.350693 741.809265,189.775436 742.424683,204.201828 
	C743.146606,221.123947 743.855225,238.044296 744.511719,254.968781 
	C745.096863,270.056274 745.847961,285.141876 746.486755,300.231323 
	C747.167847,316.320648 747.775635,332.413757 748.491272,348.500153 
	C749.169922,363.754456 749.827698,379.008331 750.485168,394.262817 
	C751.185730,410.516815 751.910461,426.767487 752.551819,443.023987 
	C752.743103,447.873871 752.440308,453.539612 757.287170,457.169312 
	C758.285889,457.917267 758.763916,459.484039 757.938538,460.313721 
	C754.186951,464.084564 756.987610,467.901855 757.935791,471.421936 
	C770.702576,518.816528 783.630371,566.167847 796.541077,613.523621 
	C799.420593,624.085510 802.568054,634.578552 805.219299,645.196350 
	C806.169373,649.001099 809.133118,649.923279 811.809998,651.368347 
	C817.550171,654.466980 817.732422,655.076172 812.505249,658.796326 
	C809.948547,660.615906 809.948547,662.702148 810.749146,665.272400 
	C811.964783,669.175354 813.689331,673.005554 812.944824,677.739929 
	C808.015015,676.834412 804.446838,673.635742 800.411804,671.588867 
	C797.947876,670.338806 796.327515,670.390991 794.230347,671.965210 
	C756.829224,700.037292 719.425903,728.106628 681.962158,756.095093 
	C646.086304,782.897278 610.141113,809.606750 574.223511,836.353088 
	C572.496155,837.639404 570.816895,839.012695 568.984558,840.131531 
	C562.293274,844.217407 558.644470,850.224915 556.094543,857.602722 
	C550.567566,873.593933 544.306885,889.331482 538.365601,905.180054 
	C538.198242,905.626465 538.250244,906.155090 538.140564,907.225586 
	C546.072571,910.064575 554.856262,909.630127 563.051697,912.510925 
	C561.963318,915.504700 559.282654,915.520996 557.298889,916.216614 
	C532.393188,924.950256 507.388306,933.403564 482.524597,942.253845 
	C465.511353,948.309753 448.219635,953.599426 431.267822,960.786133 
	C416.645782,961.000000 402.291534,961.000000 387.468658,961.000000 
M512.065857,482.700409 
	C514.453735,475.478577 516.841614,468.256775 519.307373,460.799438 
	C516.380920,459.296326 513.937439,457.888611 511.374390,456.750214 
	C497.118164,450.418182 482.814178,444.193634 468.562164,437.852173 
	C449.454376,429.350159 430.369476,420.796356 411.306549,412.194305 
	C409.616150,411.431519 408.266693,411.457062 406.602570,412.231262 
	C398.317017,416.086182 389.976013,419.821991 381.653168,423.596802 
	C364.718872,431.277374 347.765686,438.916687 330.855743,446.650513 
	C320.900940,451.203369 311.014252,455.905090 300.821167,460.668701 
	C303.771759,470.904358 306.573792,480.931671 309.553528,490.905884 
	C320.045898,526.027100 330.672638,561.108459 341.040314,596.266296 
	C342.395325,600.861328 343.023438,605.458191 349.497437,606.191589 
	C345.285004,613.780212 348.559387,620.737488 350.064880,627.428955 
	C347.417816,629.051086 345.266968,627.777466 342.949005,627.961914 
	C339.511261,635.306885 337.792206,643.282288 335.355774,650.991943 
	C325.754547,681.372986 316.448853,711.847290 306.912384,742.249023 
	C298.618195,768.690369 290.262512,795.113464 281.714630,821.473511 
	C279.091705,829.562195 278.084656,836.866699 282.129333,845.250610 
	C290.196686,861.973083 296.985443,879.313904 304.236084,896.427368 
	C305.430908,899.247498 307.275024,899.866089 310.179932,899.424927 
	C327.839355,896.743042 345.548523,894.373535 363.169373,891.465576 
	C366.514862,890.913513 370.865997,892.166870 373.760742,887.946411 
	C371.863617,886.589905 370.306641,885.409241 368.683533,884.327759 
	C361.497437,879.539917 354.264069,874.822327 347.114716,869.980530 
	C345.407166,868.824036 343.406342,867.832092 343.735626,865.002136 
	C345.476959,850.035522 347.071686,835.051941 348.767395,820.079895 
	C349.189331,816.354248 350.714874,814.551147 355.158966,814.510742 
	C374.785339,814.332214 394.400818,815.054810 414.052032,813.877014 
	C430.990967,812.861755 448.040009,813.766541 465.037872,813.585632 
	C468.696686,813.546692 470.368774,814.714783 471.118286,818.297241 
	C474.678314,835.313477 478.427826,852.290039 482.100891,869.282593 
	C482.777191,872.411316 482.043518,874.418518 478.690094,875.911987 
	C468.111237,880.623291 457.726288,885.770020 447.266296,890.748230 
	C447.260803,891.112732 447.255280,891.477234 447.249756,891.841736 
	C469.452881,895.698608 491.655975,899.555420 513.850525,903.410767 
	C514.414062,902.499146 514.858032,901.983154 515.084778,901.384827 
	C521.970764,883.211121 528.893250,865.050781 535.659851,846.832581 
	C537.230530,842.603760 539.188049,838.669006 537.506287,833.512634 
	C532.573975,818.389709 528.334229,803.039307 523.902039,787.755127 
	C508.945709,736.179382 493.971191,684.608643 479.191925,632.982178 
	C478.065125,629.045959 477.022736,626.448853 472.287781,628.077881 
	C472.050842,626.965332 471.620880,626.123596 471.753418,625.382568 
	C472.826385,619.382996 474.690918,613.444946 471.988708,607.348511 
	C471.475220,606.190002 472.599335,605.078918 473.838593,604.816101 
	C476.662354,604.217346 477.291138,602.157532 477.787476,599.723145 
	C480.194977,587.915344 483.562988,576.346802 485.577332,564.407715 
	C487.048462,555.688110 490.895782,547.370300 493.673615,538.870056 
	C499.711609,520.394043 505.743073,501.915833 512.065857,482.700409 
M501.936066,427.415192 
	C510.587433,431.222321 519.368103,434.768188 527.830383,438.957245 
	C531.537231,440.792206 534.160706,440.336151 537.412598,438.241028 
	C564.641113,420.698334 591.953308,403.285706 619.238647,385.831207 
	C627.256897,380.701874 635.269836,375.564148 644.285706,369.789490 
	C568.907410,337.249542 494.628876,305.184326 419.745636,272.858063 
	C419.531464,275.216583 419.365875,276.192017 419.365448,277.167511 
	C419.348358,313.950836 419.062317,350.735718 420.266846,387.511047 
	C420.362518,390.432526 421.677551,391.495789 424.003235,392.529999 
	C449.777008,403.991699 475.515533,415.532562 501.936066,427.415192 
M209.285934,355.856506 
	C198.668137,360.726837 188.050323,365.597198 177.704330,370.342865 
	C177.898422,372.641663 179.195465,372.905243 180.139542,373.498291 
	C198.273010,384.889130 216.418076,396.261536 234.549149,407.656219 
	C251.261581,418.159332 267.964142,428.678192 284.660126,439.207458 
	C286.648041,440.461151 288.514587,440.639496 290.741852,439.584656 
	C298.999573,435.673950 307.321869,431.898407 315.642334,428.121552 
	C341.057587,416.584869 366.455231,405.008484 391.931458,393.607880 
	C396.376160,391.618896 397.720825,388.775360 397.772156,383.957123 
	C398.048706,357.987762 395.977112,332.059967 396.624969,306.088165 
	C396.849274,297.095459 396.696930,288.092224 396.627563,279.094452 
	C396.614136,277.348022 397.232147,275.415161 395.709930,273.817932 
	C393.351562,273.201202 391.588440,274.795105 389.704834,275.636047 
	C367.269531,285.652802 344.893738,295.802795 322.456665,305.815521 
	C295.175323,317.990082 267.857422,330.082886 240.540756,342.178070 
	C230.375626,346.678986 220.169266,351.086761 209.285934,355.856506 
M531.453796,501.817902 
	C528.077942,514.949402 522.908325,527.620850 520.351501,541.369629 
	C527.926147,540.639954 534.507690,540.080811 541.071045,539.356812 
	C551.752441,538.178528 562.480164,537.248474 573.074402,535.516418 
	C579.273376,534.502930 586.717407,537.034912 591.302795,530.203979 
	C591.511169,529.893555 592.314148,529.671082 592.670776,529.818237 
	C597.639893,531.869385 600.930237,528.165283 604.421631,526.079773 
	C638.624939,505.649139 672.725403,485.046417 706.845398,464.476410 
	C712.478577,461.080292 718.064636,457.605927 724.319885,453.770813 
	C704.806274,430.113434 685.679688,406.925171 666.291626,383.419952 
	C651.402283,392.905457 637.010254,402.078400 622.613953,411.244598 
	C597.141968,427.462769 571.688782,443.710815 546.155884,459.832550 
	C543.951172,461.224609 543.004639,462.952881 542.324097,465.281738 
	C538.835693,477.218445 535.227295,489.120087 531.453796,501.817902 
M265.764984,454.876404 
	C264.135773,453.727386 262.556702,452.498291 260.869781,451.441376 
	C236.976364,436.470581 213.058548,421.538727 189.168488,406.562592 
	C179.191742,400.308411 169.311218,393.899170 159.274658,387.743530 
	C157.559616,386.691681 155.454910,384.354309 153.161545,387.112396 
	C147.868835,393.477692 142.594879,399.858612 137.324905,406.242737 
	C128.579819,416.836700 119.728645,427.345978 111.149109,438.072449 
	C106.341766,444.082825 100.663246,449.454773 96.998642,456.156952 
	C97.924843,457.889221 99.344780,458.451569 100.629967,459.211487 
	C112.766518,466.387665 124.895668,473.576355 137.020416,480.772430 
	C160.975571,494.989899 184.983124,509.120972 208.815796,523.541016 
	C212.229050,525.606201 217.462540,524.870728 218.933945,526.692810 
	C222.803726,531.484863 227.754227,530.818726 232.371689,531.558167 
	C247.865494,534.039368 263.404877,536.255371 278.959106,538.330750 
	C285.716827,539.232422 292.410034,541.104370 299.445343,540.637146 
	C299.391998,539.765137 299.452026,539.253174 299.319702,538.797119 
	C293.274597,517.960327 286.885529,497.215424 281.304077,476.255493 
	C278.867584,467.105835 276.304382,458.762604 265.764984,454.876404 
M529.607178,725.052551 
	C538.692261,756.191162 547.777283,787.329712 557.212708,819.669067 
	C591.110901,793.415955 624.194153,767.794067 657.350464,742.115540 
	C656.089905,740.296387 655.316895,739.009827 654.380798,737.855530 
	C641.111755,721.493103 627.836426,705.135620 614.530823,688.802856 
	C596.932617,667.201111 579.289185,645.636169 561.708069,624.020569 
	C558.500305,620.076660 555.266235,617.420898 549.411438,618.314575 
	C533.409668,620.756958 517.307922,622.544373 500.672699,624.664246 
	C504.605743,638.303650 508.452209,651.653687 512.304993,665.001770 
	C518.007385,684.757751 523.714294,704.512451 529.607178,725.052551 
M126.930725,606.507080 
	C107.340927,618.318542 87.753464,630.133850 68.160103,641.939453 
	C60.692898,646.438660 52.908356,650.441040 45.466881,656.004883 
	C56.220711,663.865540 66.521774,671.380981 76.807785,678.917053 
	C96.073540,693.032166 115.276047,707.234314 134.610046,721.255310 
	C147.746384,730.781738 143.545837,730.881470 153.527161,718.620422 
	C167.961182,700.889587 181.811417,682.684326 195.965729,664.724792 
	C211.046341,645.590027 226.106094,626.437317 241.394806,607.469543 
	C243.820618,604.460083 243.472794,602.381897 241.558060,599.600281 
	C232.527161,586.480408 223.557114,573.318237 214.642532,560.119080 
	C212.690033,557.228088 211.090271,556.261841 207.517242,558.427490 
	C180.973389,574.515991 154.265869,590.334534 126.930725,606.507080 
M278.284393,618.410156 
	C276.450165,618.385376 274.686035,617.913513 272.894714,617.632751 
	C268.103271,616.881897 263.491730,615.972290 259.803864,621.194275 
	C253.988800,629.428345 247.405045,637.119263 241.150742,645.043396 
	C216.230042,676.617432 191.338608,708.214722 166.338898,739.726135 
	C164.336914,742.249512 164.780060,743.666809 167.087479,745.410278 
	C176.081055,752.205505 185.025192,759.066528 193.959091,765.940369 
	C210.371933,778.568359 226.673126,791.344177 243.219101,803.794983 
	C248.440216,807.723877 253.407135,812.131958 259.730408,815.490295 
	C279.685608,751.687378 299.475159,688.414124 319.272888,625.114685 
	C316.786865,623.793701 314.706299,623.584961 312.543884,623.295776 
	C301.403625,621.805847 290.291290,620.107544 278.284393,618.410156 
M710.811279,621.831055 
	C694.879578,612.908997 678.949219,603.984375 663.015625,595.065735 
	C649.111511,587.283020 635.219971,579.477844 621.290588,571.740540 
	C614.519714,567.979614 607.675293,564.351196 600.697083,560.572327 
	C599.440430,562.350403 598.252197,563.749390 597.372742,565.321106 
	C590.807373,577.053223 584.479309,588.923279 577.662781,600.506348 
	C575.835388,603.611572 576.369812,605.493835 578.357971,607.850525 
	C583.910950,614.432922 589.434082,621.042175 594.872131,627.719604 
	C606.154175,641.572754 617.372253,655.478088 628.619263,669.359802 
	C638.301453,681.310120 647.784058,693.430359 657.745300,705.143433 
	C664.031616,712.535339 669.481201,720.674866 676.822998,727.554749 
	C709.194397,704.332092 741.362793,681.255066 774.778442,657.283325 
	C753.037170,645.258972 732.228577,633.750488 710.811279,621.831055 
M644.330933,528.875610 
	C636.629028,534.136047 628.027283,538.041138 619.821899,544.500732 
	C672.761536,573.979187 724.849182,602.983215 778.215942,632.699524 
	C763.569885,579.255981 749.340515,527.332947 734.907959,474.668243 
	C720.474609,483.353180 706.875305,491.575134 693.237305,499.732544 
	C677.160339,509.348846 661.050049,518.909302 644.330933,528.875610 
M169.653671,554.069946 
	C176.866928,549.813965 184.401749,546.049194 191.735260,540.245728 
	C156.102112,519.101685 121.234512,498.411835 85.436111,477.169708 
	C71.302307,527.879883 57.407257,577.733398 43.340824,628.201843 
	C46.535179,627.797302 48.310974,626.653076 50.147930,625.548584 
	C62.666855,618.021423 75.213295,610.540039 87.750412,603.043152 
	C114.841545,586.843384 141.932434,570.643127 169.653671,554.069946 
M190.155975,304.676514 
	C191.769882,302.994049 193.487839,301.398682 194.980865,299.615021 
	C204.877136,287.792450 214.654724,275.869568 224.644440,264.126923 
	C226.815125,261.575317 227.491653,259.825531 225.054840,256.929810 
	C214.365952,244.227859 203.915375,231.325500 193.361191,218.509995 
	C181.027039,203.533173 168.749664,188.508484 156.283722,173.642029 
	C152.699829,169.368011 149.579742,164.576187 144.925995,160.869583 
	C141.761749,172.098831 143.481293,183.003311 142.632416,193.740601 
	C141.010880,214.251160 141.017487,234.889938 140.312943,255.474304 
	C140.250900,257.286896 139.813217,259.086334 139.746567,260.899109 
	C139.399429,270.342529 138.175751,279.843414 140.775040,289.157166 
	C145.588745,306.405548 150.510956,323.623688 155.399384,340.851196 
	C155.739578,342.050049 155.782684,343.509216 157.642426,343.813202 
	C168.334991,330.979034 179.041870,318.127686 190.155975,304.676514 
M594.836487,258.100372 
	C594.115906,259.620575 595.072205,260.527161 595.961914,261.587158 
	C604.903320,272.239716 613.836060,282.899963 622.705505,293.612488 
	C635.990601,309.658234 649.222900,325.747681 662.753235,342.152649 
	C665.412598,334.823578 666.604248,327.677887 668.436218,320.703094 
	C673.535400,301.288452 677.719788,281.817383 675.748047,261.487366 
	C675.077881,254.577850 674.847778,247.529419 674.882690,240.627472 
	C675.000427,217.337204 673.092285,194.095062 673.611206,170.807632 
	C673.653320,168.917786 674.291382,166.819733 672.825562,165.140137 
	C671.131409,164.867142 670.230835,165.972305 669.414917,166.957565 
	C656.863037,182.113693 644.305969,197.265976 631.833252,212.487183 
	C619.567017,227.456329 607.394653,242.502319 594.836487,258.100372 
M210.517868,203.001236 
	C221.672180,216.534943 232.830994,230.064941 243.977600,243.604980 
	C246.728149,246.946121 249.735077,249.378357 254.573715,248.714798 
	C262.975372,247.562607 271.513184,248.145126 279.907440,247.385559 
	C285.483826,246.880966 291.217316,247.159042 297.701569,246.197937 
	C243.079285,197.643661 189.310837,149.848343 135.542389,102.053032 
	C137.981277,109.198036 140.352127,116.222481 144.109589,122.404076 
	C147.424026,127.856819 152.336411,132.327225 156.456314,137.303314 
	C174.395111,158.970139 192.302231,180.663223 210.517868,203.001236 
M656.066223,146.569489 
	C667.292053,133.489395 678.483704,120.387001 684.410095,102.469299 
	C631.070618,150.641037 578.489990,198.127411 525.108337,246.337189 
	C527.776306,246.482697 529.240112,246.697083 530.688599,246.620453 
	C543.505005,245.942413 556.250427,247.830338 569.051575,247.644226 
	C571.220093,247.612686 573.071289,247.549896 574.746521,245.477554 
	C582.253479,236.190903 590.092957,227.173920 597.665588,217.939224 
	C617.007080,194.352600 636.270264,170.701736 656.066223,146.569489 
M696.335449,176.587891 
	C695.723938,192.556320 697.093811,208.482864 697.355164,224.433243 
	C697.627563,241.052689 698.010742,257.670319 698.345276,274.288757 
	C698.351990,274.621765 698.373474,274.955414 698.360901,275.287720 
	C698.274536,277.568024 699.335449,278.650269 701.648621,278.637878 
	C707.477417,278.606628 713.306519,278.636963 719.135498,278.640961 
	C721.272522,278.642426 722.831604,277.961975 722.400391,275.437286 
	C720.574707,264.747955 721.623535,253.919861 720.935181,243.158569 
	C719.898621,226.954315 719.359314,210.683411 718.837219,194.440567 
	C718.218506,175.191895 717.256470,155.955093 716.780029,136.707947 
	C716.459412,123.753540 714.953979,110.834435 715.589783,97.853806 
	C715.617920,97.277779 715.675354,96.501381 714.342163,96.480270 
	C708.686584,107.785873 703.026367,119.259171 697.190063,130.642166 
	C695.928467,133.102753 695.278320,135.505920 695.320923,138.252167 
	C695.514526,150.710800 694.806580,163.192123 696.335449,176.587891 
M688.654053,334.011597 
	C686.968628,341.270264 685.332764,348.540894 683.577087,355.782532 
	C682.695679,359.417755 682.739990,362.272186 687.339355,363.242279 
	C688.996643,363.591827 690.879883,364.358643 691.701782,366.681152 
	C687.051147,369.173676 686.874329,371.592682 690.702087,375.881989 
	C698.950928,385.125366 706.099854,395.343872 714.228149,404.703613 
	C718.812439,409.982483 722.345703,416.263428 728.516724,420.888214 
	C728.599854,413.731415 728.156982,407.162384 727.880554,400.561157 
	C726.978821,379.019867 725.685974,357.497406 724.856323,335.960236 
	C724.453857,325.514008 723.123108,315.085083 723.651855,304.606964 
	C723.820923,301.256958 722.192627,300.265289 719.107849,300.328552 
	C713.281250,300.448090 707.437622,300.590820 701.625793,300.272644 
	C697.792969,300.062897 696.323059,301.759552 695.558838,305.165192 
	C693.455200,314.539734 691.167969,323.873077 688.654053,334.011597 
M134.018723,350.129608 
	C130.243134,336.578308 126.348907,323.058685 122.724457,309.467072 
	C118.895882,295.109985 119.008209,295.080139 104.224945,295.366302 
	C103.725708,295.375977 103.226273,295.388031 102.727051,295.383972 
	C99.883858,295.361023 98.407074,296.706024 98.366547,299.610352 
	C98.193008,312.046570 97.211021,324.436859 96.420479,336.843536 
	C95.429489,352.395996 95.556854,368.037140 94.087929,383.534454 
	C93.352547,391.292786 93.985275,399.086517 92.585411,406.841827 
	C91.767708,411.372040 91.611221,416.405121 93.401711,422.082184 
	C108.109474,405.264465 119.606491,387.727905 133.293427,372.541443 
	C132.090775,369.798126 129.447144,370.080261 128.973083,368.045807 
	C128.964355,367.065826 129.460999,366.419128 130.213623,365.986542 
	C137.495331,361.801605 137.509048,361.802948 135.496124,354.163147 
	C135.200882,353.042633 134.739639,351.965881 134.018723,350.129608 
M528.500061,270.369263 
	C510.816925,270.369263 493.133789,270.369263 475.450623,270.369263 
	C475.378845,270.804413 475.307037,271.239532 475.235260,271.674683 
	C525.688293,293.456482 576.141418,315.238281 627.060669,337.221344 
	C626.053772,333.710663 623.716125,332.183563 622.043762,330.149811 
	C606.574280,311.337921 591.043152,292.576172 575.676758,273.680573 
	C573.656555,271.196411 571.538147,270.299438 568.457397,270.326538 
	C555.472534,270.440735 542.486023,270.372070 528.500061,270.369263 
M200.852875,329.292297 
	C199.403564,331.347046 197.495316,333.134949 196.321289,336.557251 
	C244.771622,314.936890 292.306335,293.725128 341.031036,271.982361 
	C338.963928,271.816589 338.317871,271.721771 337.671417,271.719147 
	C308.847260,271.601593 280.023102,271.493103 251.198929,271.379181 
	C249.586746,271.372833 248.427536,272.027710 247.377167,273.309143 
	C241.070297,281.003571 234.680008,288.629578 228.322266,296.282318 
	C219.326004,307.111053 210.333740,317.943085 200.852875,329.292297 
M395.836853,874.601196 
	C399.151306,876.801819 402.460144,879.010925 405.782623,881.199463 
	C407.337402,882.223572 408.820923,882.989319 410.851746,882.033264 
	C425.110565,875.319885 439.420288,868.714661 453.694977,862.034912 
	C455.857635,861.022888 456.832031,859.646118 456.068451,856.865356 
	C454.583679,851.458374 453.629456,845.903442 452.517578,840.397278 
	C451.882172,837.250549 450.091919,836.337585 446.887329,836.261230 
	C422.623474,835.683716 398.399384,837.352844 374.149445,837.368103 
	C373.650848,837.368408 373.151733,837.387268 372.653778,837.414856 
	C370.713715,837.522278 369.595917,838.478455 369.405304,840.475708 
	C369.075684,843.929749 368.821014,847.396729 368.322083,850.827332 
	C367.771942,854.610168 369.311920,857.101318 372.422943,859.101318 
	C380.094757,864.033447 387.670685,869.114685 395.836853,874.601196 
M120.640228,188.193359 
	C120.983688,175.066589 120.928787,161.912842 121.814880,148.822800 
	C122.377388,140.512970 123.816742,132.387497 119.635757,124.540443 
	C116.291725,118.264191 114.196129,111.331535 109.798515,105.490311 
	C109.280396,108.950867 109.455940,112.266602 109.251694,115.558784 
	C107.999527,135.741913 106.539169,155.912781 105.391541,176.101562 
	C104.515686,191.509476 104.562027,206.991852 103.088402,222.334518 
	C102.342621,230.099243 102.522842,237.882492 101.660736,245.653610 
	C100.826210,253.176041 100.722267,260.875702 100.374214,268.501038 
	C100.299583,270.136139 100.111282,272.296295 102.364273,272.454865 
	C106.658714,272.757141 111.263542,273.711304 115.194649,272.000397 
	C118.139687,270.718658 116.148521,266.832855 116.739052,264.175262 
	C117.062561,262.719391 117.532730,261.257568 117.585342,259.785858 
	C118.309341,239.533630 119.013100,219.280411 119.609177,199.024109 
	C119.707382,195.687103 119.798653,192.385757 120.640228,188.193359 
M403.334229,908.399963 
	C383.662750,911.408325 363.991302,914.416626 344.319824,917.424988 
	C364.873901,926.692078 385.480072,934.864563 406.078308,943.057068 
	C407.715729,943.708313 409.228699,943.631042 410.901489,943.043701 
	C429.668762,936.454834 448.472015,929.968201 467.222260,923.331543 
	C469.540283,922.511047 472.166718,922.024658 474.515320,919.776672 
	C467.538330,918.542786 461.233215,917.297852 454.885803,916.330261 
	C437.966583,913.751465 421.311371,909.475037 403.334229,908.399963 
M251.517487,557.356140 
	C247.934448,557.323120 244.505936,555.786133 240.822128,556.270630 
	C240.789612,558.105896 242.191910,559.236877 243.077942,560.552673 
	C249.647736,570.309326 256.414185,579.935242 262.875549,589.762268 
	C265.009064,593.007080 267.722870,594.259277 271.404938,594.702454 
	C280.254974,595.767639 289.042480,597.393127 297.905884,598.293579 
	C304.418549,598.955139 310.822601,600.896179 317.309082,600.563416 
	C318.027100,598.767456 317.234894,597.612000 316.831726,596.364929 
	C314.179840,588.163147 310.999817,580.075439 309.133423,571.696289 
	C307.884338,566.088684 304.850189,564.894226 299.974335,564.252197 
	C284.084106,562.160034 268.242279,559.700134 251.517487,557.356140 
M566.182556,559.351929 
	C549.921326,561.062256 533.650208,562.688110 517.409485,564.574707 
	C515.003479,564.854187 512.172974,565.200806 511.341187,568.703430 
	C510.080658,574.011292 508.119873,579.153198 506.866608,584.462402 
	C505.564636,589.977905 502.824646,595.182983 502.726074,601.252808 
	C516.583008,599.667053 530.000183,597.969727 543.454956,596.658936 
	C550.376282,595.984741 555.621948,594.246399 558.899292,586.964783 
	C563.215942,577.373962 569.078430,568.478821 574.297241,559.247375 
	C571.368164,557.539124 569.271484,559.902039 566.182556,559.351929 
z"/>
</svg>